PathFileType	4	(X/Y/Z)	/Users/visionmauri/1_1_1_f_Sports2D/1_1_1_f_Sports2D_px_person00.trc
DataRate	CameraRate	NumFrames	NumMarkers	Units	OrigDataRate	OrigDataStartFrame	OrigNumFrames
30.0	30.0	6	22	m	30.0	223	358
Frame#	Time	Hip			RHip			RKnee			RAnkle			RBigToe			RSmallToe			RHeel			LHip			LKnee			LAnkle			LBigToe			LSmallToe			LHeel			Neck			Head			Nose			RShoulder			RElbow			RWrist			LShoulder			LElbow			LWrist			
		X1	Y1	Z1	X2	Y2	Z2	X3	Y3	Z3	X4	Y4	Z4	X5	Y5	Z5	X6	Y6	Z6	X7	Y7	Z7	X8	Y8	Z8	X9	Y9	Z9	X10	Y10	Z10	X11	Y11	Z11	X12	Y12	Z12	X13	Y13	Z13	X14	Y14	Z14	X15	Y15	Z15	X16	Y16	Z16	X17	Y17	Z17	X18	Y18	Z18	X19	Y19	Z19	X20	Y20	Z20	X21	Y21	Z21	X22	Y22	Z22
223	7.454154995331466	503.6909909862054	929.1124491113577	0.0	455.30343557007205	933.8395654503479	0.0	442.0593006628956	1125.2535443430584	0.0	452.9239921753608	1287.400142469	0.0	443.1803910033039	1367.1989110005127	0.0	419.865159955779	1356.3866319068889	0.0	463.7976948174616	1308.9103644326697	0.0	552.7409415772293	936.7417668507735	0.0	550.1825703234641	1119.3452628479758	0.0	531.9219716654197	1297.6501982645998	0.0	506.7484212836644	1368.2602501567685	0.0	537.8558278370408	1361.341583315977	0.0	527.5881391759432	1320.0885409227574	0.0	523.6767907550797	651.2194204260135	0.0	529.3962932081959	530.1941516662463	0.0	529.554879343792	604.7063168384135	0.0	432.9256836125394	689.7517070903405	0.0	398.36918753833135	807.2127102338258	0.0	368.1393937772381	913.8692160625	0.0	610.801303641935	702.6177463885639	0.0	637.6727168285781	829.7917067942158	0.0	648.067250966822	816.7801651057913	0.0
224	7.487581699346405	503.6637463195332	929.1417807207081	0.0	454.62404940400756	934.3026871067522	0.0	443.2781090398893	1125.8553297797075	0.0	453.0944150509867	1292.9100627478088	0.0	450.0278700532393	1372.645869675642	0.0	424.2737343202123	1363.631120657411	0.0	462.86971019411976	1315.119711433601	0.0	552.7265573106204	936.782781306672	0.0	550.7453490477536	1119.3010202835621	0.0	530.9985605655966	1297.276465017973	0.0	507.357341388757	1366.659457225943	0.0	538.5383862539026	1358.6189144801883	0.0	526.8169335706034	1319.5429594560974	0.0	523.8353870893807	651.1213253772202	0.0	529.0163534027993	530.0257540909375	0.0	529.3514622858698	606.829628881369	0.0	433.991895921816	689.3100150721616	0.0	399.2927010519971	807.0018054389049	0.0	367.2576076806391	913.7087005318896	0.0	610.500076406012	703.0484359578726	0.0	640.4695112333653	830.388013028891	0.0	649.1632475123333	815.0076491026601	0.0
225	7.5210084033613445	503.83237230250023	928.9955241183202	0.0	453.9207810536116	934.905924675317	0.0	444.3214188974462	1128.1991411142965	0.0	453.2687924834036	1300.2140319857972	0.0	452.749837441723	1378.8775753857062	0.0	425.86968097205425	1370.6343823250136	0.0	463.03455681738035	1324.9586394765442	0.0	552.4525425841915	937.5115151956658	0.0	551.2434671830216	1119.58474461526	0.0	529.4943703273973	1297.1461465215345	0.0	508.26583213540374	1365.2453585589449	0.0	539.1677424959274	1356.6639936141355	0.0	526.1181782790427	1319.556802500274	0.0	523.5691593443547	651.4914187814236	0.0	528.7089037926778	529.9500293053487	0.0	527.4930176593633	607.6571604631595	0.0	433.97057223695003	689.3177555296866	0.0	399.8691368011052	807.5033635175066	0.0	366.8848281507748	913.2163629570531	0.0	610.3974807713806	704.1299762157747	0.0	642.8621586698624	830.2747079566118	0.0	649.7225510457934	815.1630589514385	0.0
226	7.554435107376284	503.81037503945856	929.5042160891498	0.0	453.3907351114155	935.0646172557925	0.0	445.53187379288016	1131.0963206693561	0.0	453.3708120688336	1309.2730743523261	0.0	452.59626324529836	1386.3203301723656	0.0	425.45358954877906	1378.1733289455096	0.0	463.40050793650835	1336.2323457012192	0.0	552.1354362594572	938.5313578049536	0.0	551.0729245693365	1120.7558030244452	0.0	528.5346209693221	1297.0454126497134	0.0	509.01384206661237	1365.7450681442701	0.0	538.8216714442257	1357.4142455443532	0.0	525.8489453753502	1320.2245123611613	0.0	523.366690873828	652.3748777156349	0.0	528.5944723298747	529.675313946631	0.0	524.5401163452378	607.4057089205807	0.0	433.82185623617926	689.3096564955006	0.0	400.04346056816036	807.7678652221771	0.0	366.8234625038087	912.4708569375764	0.0	610.5541414113555	704.922027570164	0.0	643.4937305399147	830.2093960941221	0.0	650.4675033778536	817.0066759195711	0.0
227	7.587861811391223	503.4152451836799	931.1222353294698	0.0	452.88217354446834	934.8959389942606	0.0	446.94367465125873	1133.9039422654666	0.0	453.75372041155845	1320.0987908635163	0.0	452.42958279869373	1395.3180086913578	0.0	425.2539894369647	1387.4904631395416	0.0	463.4440110814446	1347.0916645628708	0.0	552.0220031084895	939.3433944839255	0.0	550.3096073745229	1122.2769160033604	0.0	528.3338007153399	1295.3027919123335	0.0	509.7425532609262	1367.5719560087	0.0	538.0895669357919	1359.4401118551664	0.0	525.7679722071134	1320.2663131401548	0.0	523.2867745110037	653.8159915809274	0.0	528.3577305441916	529.3889897453926	0.0	522.0892866489403	607.3032830068175	0.0	434.0120286377432	688.6846724522471	0.0	400.17967157759733	807.0314087641096	0.0	366.52137049968223	911.9373595925181	0.0	610.6891085603577	704.7233834544371	0.0	643.1301857060827	832.3536457680306	0.0	651.5391165128162	816.355522861308	0.0
228	7.621288515406162	503.0554460437979	933.5267423628096	0.0	452.2138591710597	936.4808448231383	0.0	448.49362228256825	1137.304621838311	0.0	454.6227183448661	1331.0183048709325	0.0	454.50042671990286	1403.806479030755	0.0	427.0246779121242	1396.5598822419329	0.0	463.4638168535171	1357.2767774692709	0.0	552.0906329344909	941.027631320373	0.0	549.663995692377	1123.406982872677	0.0	528.3748417682227	1292.1379728203044	0.0	510.6083362475784	1367.67141910348	0.0	537.9664772651952	1358.769204430362	0.0	525.7173399467522	1319.5002934764764	0.0	522.9786089576969	655.082820061348	0.0	527.6153131806992	529.2527893190884	0.0	521.0876408241635	607.2571150884072	0.0	433.5466273687933	688.0716225546109	0.0	399.6879272691547	806.07436270287	0.0	366.1176040726769	912.0437149468797	0.0	610.7689761340587	704.1260960906505	0.0	642.9765065414625	835.4799359870981	0.0	652.9261596088943	812.6917791467251	0.0
